<mxfile host="app.diagrams.net" modified="2022-05-14T16:16:01.908Z" agent="5.0 (Windows NT 10.0; Win64; x64) AppleWebKit/537.36 (KHTML, like Gecko) Chrome/101.0.4951.54 Safari/537.36" etag="I2YvnveyFlFV1Zb11ZI9" version="18.0.4" type="github">
  <diagram id="jvNJPq9bYI31nyThbXA5" name="Page-1">
    <mxGraphModel dx="813" dy="435" grid="1" gridSize="10" guides="1" tooltips="1" connect="1" arrows="1" fold="1" page="1" pageScale="1" pageWidth="827" pageHeight="1169" math="0" shadow="0">
      <root>
        <mxCell id="0" />
        <mxCell id="1" parent="0" />
        <mxCell id="ZLkKcH1SCxGUI0YMEnIH-12" value="식사 완료" style="ellipse;whiteSpace=wrap;html=1;strokeWidth=2;" parent="1" vertex="1">
          <mxGeometry x="280" y="200" width="120" height="40" as="geometry" />
        </mxCell>
        <mxCell id="ZLkKcH1SCxGUI0YMEnIH-6" value="" style="rounded=0;orthogonalLoop=1;jettySize=auto;html=1;entryX=0;entryY=0.5;entryDx=0;entryDy=0;endArrow=none;endFill=0;exitX=1;exitY=0.3333333333333333;exitDx=0;exitDy=0;exitPerimeter=0;" parent="1" source="ZLkKcH1SCxGUI0YMEnIH-1" target="ZLkKcH1SCxGUI0YMEnIH-3" edge="1">
          <mxGeometry relative="1" as="geometry">
            <mxPoint x="160" y="480" as="sourcePoint" />
          </mxGeometry>
        </mxCell>
        <mxCell id="ZLkKcH1SCxGUI0YMEnIH-1" value="앱 이용 사용자" style="shape=umlActor;verticalLabelPosition=bottom;verticalAlign=top;html=1;outlineConnect=0;strokeWidth=2;" parent="1" vertex="1">
          <mxGeometry x="90" y="440" width="30" height="60" as="geometry" />
        </mxCell>
        <mxCell id="ZLkKcH1SCxGUI0YMEnIH-2" value="" style="rounded=0;whiteSpace=wrap;html=1;fillColor=none;strokeWidth=2;" parent="1" vertex="1">
          <mxGeometry x="230" y="110" width="410" height="440" as="geometry" />
        </mxCell>
        <mxCell id="ZLkKcH1SCxGUI0YMEnIH-3" value="앱 이용" style="ellipse;whiteSpace=wrap;html=1;strokeWidth=3;fillColor=#dae8fc;strokeColor=#6c8ebf;" parent="1" vertex="1">
          <mxGeometry x="300" y="360" width="120" height="40" as="geometry" />
        </mxCell>
        <mxCell id="ZLkKcH1SCxGUI0YMEnIH-4" value="예약" style="ellipse;whiteSpace=wrap;html=1;strokeWidth=3;fillColor=none;" parent="1" vertex="1">
          <mxGeometry x="420" y="480" width="120" height="40" as="geometry" />
        </mxCell>
        <mxCell id="ZLkKcH1SCxGUI0YMEnIH-5" value="혼잡도 조회" style="ellipse;whiteSpace=wrap;html=1;strokeWidth=3;fillColor=none;" parent="1" vertex="1">
          <mxGeometry x="270" y="480" width="120" height="40" as="geometry" />
        </mxCell>
        <mxCell id="ZLkKcH1SCxGUI0YMEnIH-9" value="" style="endArrow=block;html=1;rounded=0;entryX=0.5;entryY=1;entryDx=0;entryDy=0;exitX=0.5;exitY=0;exitDx=0;exitDy=0;endFill=0;" parent="1" source="ZLkKcH1SCxGUI0YMEnIH-4" target="ZLkKcH1SCxGUI0YMEnIH-3" edge="1">
          <mxGeometry width="50" height="50" relative="1" as="geometry">
            <mxPoint x="310" y="450" as="sourcePoint" />
            <mxPoint x="360" y="400" as="targetPoint" />
          </mxGeometry>
        </mxCell>
        <mxCell id="ZLkKcH1SCxGUI0YMEnIH-10" value="" style="endArrow=block;html=1;rounded=0;entryX=0.5;entryY=1;entryDx=0;entryDy=0;exitX=0.5;exitY=0;exitDx=0;exitDy=0;endFill=0;" parent="1" source="ZLkKcH1SCxGUI0YMEnIH-5" target="ZLkKcH1SCxGUI0YMEnIH-3" edge="1">
          <mxGeometry width="50" height="50" relative="1" as="geometry">
            <mxPoint x="330" y="489.9999999999999" as="sourcePoint" />
            <mxPoint x="400" y="440" as="targetPoint" />
          </mxGeometry>
        </mxCell>
        <mxCell id="ZLkKcH1SCxGUI0YMEnIH-11" value="키오스크 주문" style="ellipse;whiteSpace=wrap;html=1;strokeWidth=3;fillColor=#d5e8d4;strokeColor=#82b366;" parent="1" vertex="1">
          <mxGeometry x="280" y="135" width="120" height="40" as="geometry" />
        </mxCell>
        <mxCell id="ZLkKcH1SCxGUI0YMEnIH-13" value="" style="rounded=0;orthogonalLoop=1;jettySize=auto;html=1;endArrow=none;endFill=0;exitX=1;exitY=0.3333333333333333;exitDx=0;exitDy=0;exitPerimeter=0;entryX=0;entryY=0.5;entryDx=0;entryDy=0;" parent="1" source="ZLkKcH1SCxGUI0YMEnIH-1" target="ZLkKcH1SCxGUI0YMEnIH-11" edge="1">
          <mxGeometry relative="1" as="geometry">
            <mxPoint x="170" y="493.51351351351354" as="sourcePoint" />
            <mxPoint x="340" y="420" as="targetPoint" />
          </mxGeometry>
        </mxCell>
        <mxCell id="ZLkKcH1SCxGUI0YMEnIH-14" value="&amp;lt;&amp;lt;actor&amp;gt;&amp;gt;&lt;br&gt;블랙리스트 시스템" style="rounded=0;whiteSpace=wrap;html=1;strokeWidth=2;fillColor=none;" parent="1" vertex="1">
          <mxGeometry x="680" y="135" width="120" height="50" as="geometry" />
        </mxCell>
        <mxCell id="ZLkKcH1SCxGUI0YMEnIH-15" value="키오스크 마감" style="ellipse;whiteSpace=wrap;html=1;strokeWidth=3;fillColor=none;" parent="1" vertex="1">
          <mxGeometry x="500" y="140" width="120" height="40" as="geometry" />
        </mxCell>
        <mxCell id="ZLkKcH1SCxGUI0YMEnIH-16" value="" style="endArrow=none;html=1;rounded=0;entryX=0;entryY=0.5;entryDx=0;entryDy=0;exitX=1;exitY=0.5;exitDx=0;exitDy=0;" parent="1" source="ZLkKcH1SCxGUI0YMEnIH-15" target="ZLkKcH1SCxGUI0YMEnIH-14" edge="1">
          <mxGeometry width="50" height="50" relative="1" as="geometry">
            <mxPoint x="290" y="350" as="sourcePoint" />
            <mxPoint x="340" y="300" as="targetPoint" />
          </mxGeometry>
        </mxCell>
        <mxCell id="ZLkKcH1SCxGUI0YMEnIH-17" value="" style="rounded=0;orthogonalLoop=1;jettySize=auto;html=1;endArrow=none;endFill=0;entryX=0;entryY=0.5;entryDx=0;entryDy=0;exitX=1;exitY=0.3333333333333333;exitDx=0;exitDy=0;exitPerimeter=0;" parent="1" source="ZLkKcH1SCxGUI0YMEnIH-1" target="ZLkKcH1SCxGUI0YMEnIH-12" edge="1">
          <mxGeometry relative="1" as="geometry">
            <mxPoint x="160" y="480" as="sourcePoint" />
            <mxPoint x="304" y="170" as="targetPoint" />
          </mxGeometry>
        </mxCell>
        <mxCell id="ZLkKcH1SCxGUI0YMEnIH-18" value="" style="endArrow=classic;html=1;rounded=0;entryX=0;entryY=0.5;entryDx=0;entryDy=0;exitX=1;exitY=0.5;exitDx=0;exitDy=0;dashed=1;" parent="1" source="ZLkKcH1SCxGUI0YMEnIH-12" target="ZLkKcH1SCxGUI0YMEnIH-15" edge="1">
          <mxGeometry width="50" height="50" relative="1" as="geometry">
            <mxPoint x="290" y="350" as="sourcePoint" />
            <mxPoint x="340" y="300" as="targetPoint" />
          </mxGeometry>
        </mxCell>
        <mxCell id="ZLkKcH1SCxGUI0YMEnIH-19" value="&amp;lt;&amp;lt;includes&amp;gt;&amp;gt;" style="edgeLabel;html=1;align=center;verticalAlign=middle;resizable=0;points=[];" parent="ZLkKcH1SCxGUI0YMEnIH-18" vertex="1" connectable="0">
          <mxGeometry x="-0.3271" relative="1" as="geometry">
            <mxPoint x="13" y="-6" as="offset" />
          </mxGeometry>
        </mxCell>
        <mxCell id="ZLkKcH1SCxGUI0YMEnIH-20" value="" style="endArrow=classic;html=1;rounded=0;dashed=1;exitX=0.5;exitY=1;exitDx=0;exitDy=0;entryX=0;entryY=0;entryDx=0;entryDy=0;" parent="1" source="ZLkKcH1SCxGUI0YMEnIH-11" target="ZLkKcH1SCxGUI0YMEnIH-5" edge="1">
          <mxGeometry width="50" height="50" relative="1" as="geometry">
            <mxPoint x="300" y="340" as="sourcePoint" />
            <mxPoint x="350" y="290" as="targetPoint" />
          </mxGeometry>
        </mxCell>
        <mxCell id="ZLkKcH1SCxGUI0YMEnIH-21" value="&amp;lt;&amp;lt;includes&amp;gt;&amp;gt;" style="edgeLabel;html=1;align=center;verticalAlign=middle;resizable=0;points=[];" parent="ZLkKcH1SCxGUI0YMEnIH-20" vertex="1" connectable="0">
          <mxGeometry x="-0.0422" y="1" relative="1" as="geometry">
            <mxPoint as="offset" />
          </mxGeometry>
        </mxCell>
        <mxCell id="ZLkKcH1SCxGUI0YMEnIH-24" value="" style="endArrow=classic;html=1;rounded=0;dashed=1;entryX=0.5;entryY=1;entryDx=0;entryDy=0;exitX=0.5;exitY=0;exitDx=0;exitDy=0;" parent="1" source="ZLkKcH1SCxGUI0YMEnIH-4" target="ZLkKcH1SCxGUI0YMEnIH-11" edge="1">
          <mxGeometry width="50" height="50" relative="1" as="geometry">
            <mxPoint x="300" y="360" as="sourcePoint" />
            <mxPoint x="350" y="310" as="targetPoint" />
          </mxGeometry>
        </mxCell>
        <mxCell id="ZLkKcH1SCxGUI0YMEnIH-25" value="&amp;lt;&amp;lt;includes&amp;gt;&amp;gt;" style="edgeLabel;html=1;align=center;verticalAlign=middle;resizable=0;points=[];" parent="ZLkKcH1SCxGUI0YMEnIH-24" vertex="1" connectable="0">
          <mxGeometry x="-0.0919" y="-2" relative="1" as="geometry">
            <mxPoint as="offset" />
          </mxGeometry>
        </mxCell>
        <mxCell id="ZLkKcH1SCxGUI0YMEnIH-27" value="앱 이용x 사용자" style="shape=umlActor;verticalLabelPosition=bottom;verticalAlign=top;html=1;outlineConnect=0;strokeWidth=2;" parent="1" vertex="1">
          <mxGeometry x="70" y="140" width="30" height="60" as="geometry" />
        </mxCell>
        <mxCell id="ZLkKcH1SCxGUI0YMEnIH-30" value="" style="endArrow=none;html=1;rounded=0;entryX=0;entryY=0.5;entryDx=0;entryDy=0;exitX=1;exitY=0.3333333333333333;exitDx=0;exitDy=0;exitPerimeter=0;" parent="1" source="ZLkKcH1SCxGUI0YMEnIH-27" target="ZLkKcH1SCxGUI0YMEnIH-11" edge="1">
          <mxGeometry width="50" height="50" relative="1" as="geometry">
            <mxPoint x="250" y="230" as="sourcePoint" />
            <mxPoint x="300" y="180" as="targetPoint" />
          </mxGeometry>
        </mxCell>
        <mxCell id="ZLkKcH1SCxGUI0YMEnIH-31" value="" style="endArrow=none;html=1;rounded=0;entryX=0;entryY=0.5;entryDx=0;entryDy=0;exitX=1;exitY=0.3333333333333333;exitDx=0;exitDy=0;exitPerimeter=0;" parent="1" source="ZLkKcH1SCxGUI0YMEnIH-27" target="ZLkKcH1SCxGUI0YMEnIH-12" edge="1">
          <mxGeometry width="50" height="50" relative="1" as="geometry">
            <mxPoint x="110" y="170" as="sourcePoint" />
            <mxPoint x="270" y="170" as="targetPoint" />
          </mxGeometry>
        </mxCell>
        <mxCell id="ZLkKcH1SCxGUI0YMEnIH-32" value="&amp;lt;&amp;lt;actor&amp;gt;&amp;gt;&lt;br&gt;혼잡도 조회 시스템" style="rounded=0;whiteSpace=wrap;html=1;strokeWidth=2;fillColor=none;" parent="1" vertex="1">
          <mxGeometry x="680" y="370" width="120" height="50" as="geometry" />
        </mxCell>
        <mxCell id="ZLkKcH1SCxGUI0YMEnIH-34" value="" style="endArrow=none;html=1;rounded=0;entryX=0;entryY=0.5;entryDx=0;entryDy=0;exitX=1;exitY=0.5;exitDx=0;exitDy=0;" parent="1" source="ZLkKcH1SCxGUI0YMEnIH-3" target="ZLkKcH1SCxGUI0YMEnIH-32" edge="1">
          <mxGeometry width="50" height="50" relative="1" as="geometry">
            <mxPoint x="380" y="370" as="sourcePoint" />
            <mxPoint x="430" y="320" as="targetPoint" />
          </mxGeometry>
        </mxCell>
        <mxCell id="ZLkKcH1SCxGUI0YMEnIH-36" value="&lt;b&gt;&lt;font style=&quot;font-size: 20px&quot;&gt;Use case Diagram&lt;/font&gt;&lt;/b&gt;" style="text;html=1;align=center;verticalAlign=middle;resizable=0;points=[];autosize=1;strokeColor=none;fillColor=none;fontSize=18;" parent="1" vertex="1">
          <mxGeometry x="40" y="50" width="190" height="30" as="geometry" />
        </mxCell>
        <mxCell id="ZLkKcH1SCxGUI0YMEnIH-37" value="" style="ellipse;whiteSpace=wrap;html=1;aspect=fixed;fontSize=20;strokeWidth=1;fillColor=#dae8fc;strokeColor=#6c8ebf;" parent="1" vertex="1">
          <mxGeometry x="250" y="60" width="30" height="30" as="geometry" />
        </mxCell>
        <mxCell id="ZLkKcH1SCxGUI0YMEnIH-38" value="&lt;span style=&quot;font-size: 17px&quot;&gt;App(yeab)&lt;/span&gt;" style="text;html=1;align=center;verticalAlign=middle;resizable=0;points=[];autosize=1;strokeColor=none;fillColor=none;fontSize=20;" parent="1" vertex="1">
          <mxGeometry x="285" y="60" width="90" height="30" as="geometry" />
        </mxCell>
        <mxCell id="ZLkKcH1SCxGUI0YMEnIH-39" value="" style="ellipse;whiteSpace=wrap;html=1;aspect=fixed;fontSize=20;strokeWidth=1;fillColor=#d5e8d4;strokeColor=#82b366;" parent="1" vertex="1">
          <mxGeometry x="375" y="60" width="30" height="30" as="geometry" />
        </mxCell>
        <mxCell id="ZLkKcH1SCxGUI0YMEnIH-40" value="&lt;span style=&quot;font-size: 17px&quot;&gt;kiosk&lt;/span&gt;" style="text;html=1;align=center;verticalAlign=middle;resizable=0;points=[];autosize=1;strokeColor=none;fillColor=none;fontSize=20;" parent="1" vertex="1">
          <mxGeometry x="410" y="60" width="50" height="30" as="geometry" />
        </mxCell>
      </root>
    </mxGraphModel>
  </diagram>
</mxfile>
